<svg width="29" height="28" viewBox="0 0 29 28" fill="none" xmlns="http://www.w3.org/2000/svg">
<path d="M12.5686 14.0922C12.5686 13.0609 13.4333 12.2249 14.5 12.2249C15.5667 12.2249 16.4315 13.0609 16.4315 14.0922C16.4315 15.1235 15.5667 15.9595 14.5 15.9595C13.4333 15.9595 12.5686 15.1235 12.5686 14.0922Z" fill="white"/>
<path fill-rule="evenodd" clip-rule="evenodd" d="M10.6145 9.64599C10.6145 8.20569 11.8223 7.03809 13.3121 7.03809H15.6879C17.1777 7.03809 18.3855 8.20568 18.3855 9.64599C18.3855 9.65831 18.3952 9.66856 18.4079 9.66956L20.3219 9.81983C21.1792 9.88714 21.8843 10.5001 22.0443 11.3171C22.4526 13.4021 22.4831 15.5398 22.1343 17.6348L22.0508 18.1362C21.8934 19.0814 21.0888 19.8005 20.1018 19.878L18.4345 20.0089C15.8158 20.2145 13.1842 20.2145 10.5655 20.0089L8.89822 19.878C7.91123 19.8005 7.10657 19.0814 6.94921 18.1362L6.86573 17.6348C6.51693 15.5398 6.54738 13.4021 6.95571 11.3171C7.11573 10.5001 7.82081 9.88714 8.67813 9.81983L10.5921 9.66956C10.6048 9.66856 10.6145 9.65831 10.6145 9.64599ZM14.5 10.9801C12.7222 10.9801 11.281 12.3734 11.281 14.0922C11.281 15.811 12.7222 17.2043 14.5 17.2043C16.2779 17.2043 17.7191 15.811 17.7191 14.0922C17.7191 12.3734 16.2779 10.9801 14.5 10.9801Z" fill="white"/>
<path d="M3.125 7.875V4.375C3.125 3.4085 3.9085 2.625 4.875 2.625H8.375" stroke="white" stroke-width="2.5" stroke-linecap="round" stroke-linejoin="round"/>
<path d="M25.875 7.875V4.375C25.875 3.4085 25.0915 2.625 24.125 2.625H20.625" stroke="white" stroke-width="2.5" stroke-linecap="round" stroke-linejoin="round"/>
<path d="M25.875 20.125V23.625C25.875 24.5915 25.0915 25.375 24.125 25.375H20.625" stroke="white" stroke-width="2.5" stroke-linecap="round" stroke-linejoin="round"/>
<path d="M3.125 20.125V23.625C3.125 24.5915 3.9085 25.375 4.875 25.375H8.375" stroke="white" stroke-width="2.5" stroke-linecap="round" stroke-linejoin="round"/>
</svg>
